#N canvas 969 382 181 249 10;
#X obj 59 107 random 100;
#X obj 24 189 s background;
#X obj 24 45 r tick;
#X obj 59 131 > 90;
#X obj 24 164 spigot;
#X connect 0 0 3 0;
#X connect 2 0 0 0;
#X connect 2 0 4 0;
#X connect 3 0 4 1;
#X connect 4 0 1 0;
