#N canvas 263 157 528 467 10;
#X obj 86 338 gate;
#X obj 85 105 random 100;
#X obj 84 49 r tick;
#X obj 165 306 mtof;
#X obj 86 368 s bass;
#X obj 85 130 > 50;
#X msg 226 191 50;
#X obj 166 106 random 5;
#X obj 166 131 sel 0 1 2 3 4;
#X msg 194 192 48;
#X msg 258 191 40;
#X msg 165 191 42;
#X connect 0 0 4 0;
#X connect 1 0 5 0;
#X connect 2 0 1 0;
#X connect 2 0 7 0;
#X connect 3 0 0 1;
#X connect 5 0 0 0;
#X connect 6 0 3 0;
#X connect 7 0 8 0;
#X connect 8 0 11 0;
#X connect 8 1 9 0;
#X connect 8 2 6 0;
#X connect 8 3 10 0;
#X connect 9 0 3 0;
#X connect 10 0 3 0;
#X connect 11 0 3 0;
