#N canvas 395 22 437 468 10;
#X obj 114 297 dac~;
#X obj 232 255 *~ 0.2;
#X obj 40 257 *~ 0.2;
#X obj 40 213 osc~ 220;
#X obj 232 212 osc~ 330;
#X obj 10 424 print BOOP_PATCH;
#X obj 10 374 loadbang;
#X msg 10 399 I'm born;
#X obj 40 128 r \$0-leftFreq;
#X obj 232 128 r \$0-rightFreq;
#X obj 292 212 r rightAmp;
#X obj 101 213 r leftAmp;
#X obj 101 190 r \$0-leftAmp;
#X obj 292 187 r \$0-rightAmp;
#X obj 50 152 r leftFreq;
#X obj 242 152 r rightFreq;
#X obj 19 68 notein 1;
#X obj 216 67 notein 2;
#X obj 19 97 mtof;
#X obj 362 425 f 0.2;
#X obj 216 93 mtof;
#X obj 78 398 r \$0-internal;
#X obj 53 97 s $-internal;
#X connect 1 0 0 1;
#X connect 2 0 0 0;
#X connect 3 0 2 0;
#X connect 4 0 1 0;
#X connect 6 0 7 0;
#X connect 7 0 5 0;
#X connect 8 0 3 0;
#X connect 9 0 4 0;
#X connect 10 0 1 1;
#X connect 11 0 2 1;
#X connect 12 0 2 1;
#X connect 13 0 1 1;
#X connect 14 0 3 0;
#X connect 15 0 4 0;
#X connect 16 0 18 0;
#X connect 16 0 22 0;
#X connect 17 0 20 0;
#X connect 17 0 22 0;
#X connect 18 0 3 0;
#X connect 20 0 4 0;
#X connect 21 0 5 0;
