#N canvas 317 22 1092 667 10;
#X obj 58 189 osc~;
#X obj 58 224 *~;
#X obj 57 435 dac~;
#X obj 58 345 *~ 1;
#X obj 96 267 *~ 1;
#X obj 55 77 r sequence;
#X obj 96 158 vline~;
#X obj 55 103 t f b;
#X obj 95 188 *~;
#X msg 96 132 1 5 \, 0 200 200;
#N canvas 28 67 1028 745 rev2 0;
#X obj 171 507 +~;
#X obj 530 115 inlet;
#X obj 194 417 *~;
#X obj 496 422 *~;
#X obj 295 422 *~;
#X obj 397 422 *~;
#X obj 453 556 -~;
#X obj 374 555 -~;
#X obj 249 547 +~;
#X obj 171 544 +~;
#X obj 172 454 +~;
#X obj 272 450 +~;
#X obj 474 511 -~;
#X obj 397 509 +~;
#X obj 249 510 -~;
#X obj 462 115 inlet;
#X obj 619 439 line~;
#X obj 519 384 line~;
#X obj 26 131 delread~ \$0-del1 58.6435;
#X obj 104 153 delread~ \$0-del2 69.4325;
#X obj 186 175 delread~ \$0-del3 74.5234;
#X obj 268 199 delread~ \$0-del4 86.1244;
#X obj 540 510 *~;
#X obj 609 511 *~;
#X obj 171 651 delwrite~ \$0-del1 58.6435;
#X obj 250 627 delwrite~ \$0-del2 69.4325;
#X obj 375 605 delwrite~ \$0-del3 74.5234;
#X obj 454 583 delwrite~ \$0-del4 86.1244;
#X obj 619 367 dbtorms;
#X obj 619 413 pack 0 30;
#X obj 530 221 pack 0 50;
#X obj 19 400 inlet~;
#X obj 540 535 outlet~;
#X obj 609 535 outlet~;
#X obj 530 197 / 200;
#X obj 530 172 clip 0 100;
#X obj 62 246 lop~;
#X obj 462 147 f \$1;
#X obj 530 148 f \$2;
#X obj 635 153 f \$3;
#X obj 706 153 f \$4;
#X obj 377 116 loadbang;
#X obj 677 510 *~;
#X obj 745 511 *~;
#X obj 677 535 outlet~;
#X obj 745 535 outlet~;
#X obj 635 177 moses 1;
#X msg 641 203 3000;
#X obj 715 203 clip 0 100;
#N canvas 345 88 355 597 early-reflect 0;
#X obj 119 477 delread~ \$0-ref6 13.645;
#X obj 119 453 delwrite~ \$0-ref6 13.645;
#X obj 106 400 delread~ \$0-ref5 16.364;
#X obj 106 376 delwrite~ \$0-ref5 16.364;
#X obj 102 324 delread~ \$0-ref4 19.392;
#X obj 102 300 delwrite~ \$0-ref4 19.392;
#X obj 106 247 delread~ \$0-ref3 25.796;
#X obj 106 223 delwrite~ \$0-ref3 25.796;
#X obj 107 169 delread~ \$0-ref2 43.5337;
#X obj 107 145 delwrite~ \$0-ref2 43.5337;
#X obj 110 90 delread~ \$0-ref1 75.2546;
#X obj 84 119 -~;
#X obj 49 119 +~;
#X obj 50 195 +~;
#X obj 85 196 -~;
#X obj 84 275 -~;
#X obj 49 274 +~;
#X obj 82 349 -~;
#X obj 48 350 +~;
#X obj 83 428 -~;
#X obj 49 428 +~;
#X obj 65 7 inlet~;
#X obj 110 66 delwrite~ \$0-ref1 75.2546;
#X obj 49 508 outlet~;
#X obj 119 507 outlet~;
#X connect 0 0 24 0;
#X connect 2 0 20 1;
#X connect 2 0 19 1;
#X connect 4 0 18 1;
#X connect 4 0 17 1;
#X connect 6 0 16 1;
#X connect 6 0 15 1;
#X connect 8 0 13 1;
#X connect 8 0 14 1;
#X connect 10 0 12 1;
#X connect 10 0 11 1;
#X connect 11 0 9 0;
#X connect 12 0 14 0;
#X connect 12 0 13 0;
#X connect 13 0 16 0;
#X connect 13 0 15 0;
#X connect 14 0 7 0;
#X connect 15 0 5 0;
#X connect 16 0 18 0;
#X connect 16 0 17 0;
#X connect 17 0 3 0;
#X connect 18 0 20 0;
#X connect 18 0 19 0;
#X connect 19 0 1 0;
#X connect 20 0 23 0;
#X connect 21 0 12 0;
#X connect 21 0 11 0;
#X connect 21 0 22 0;
#X restore 19 426 pd early-reflect;
#X obj 628 226 f;
#X obj 628 115 inlet;
#X obj 706 119 inlet;
#X obj 715 226 f;
#X obj 715 249 * 0.01;
#X obj 715 273 pack 0 50;
#X obj 715 297 line~;
#X obj 39 279 -~;
#X obj 38 310 *~;
#X obj 26 341 +~;
#X obj 142 250 lop~;
#X obj 116 284 -~;
#X obj 115 319 *~;
#X obj 105 343 +~;
#X obj 224 255 lop~;
#X obj 198 283 -~;
#X obj 197 324 *~;
#X obj 186 349 +~;
#X obj 318 259 lop~;
#X obj 291 284 -~;
#X obj 291 328 *~;
#X obj 268 352 +~;
#X obj 619 389 * 0.125;
#X text 413 20 control inlets:;
#X text 19 19 rev2 - simple \, cheap reverberator with;
#X text 410 39 1: output level \, dB \, 0-100;
#X text 18 40 one signal inlet and four signal outlets.;
#X text 409 89 4: high frequency damping \, 0-100;
#X text 410 72 3: crossover frequency in Hz. (3000 default);
#X text 410 55 2: liveness \, 0-100 \, usually between 85 and 100;
#X connect 0 0 9 0;
#X connect 0 0 7 0;
#X connect 1 0 38 0;
#X connect 2 0 10 1;
#X connect 3 0 12 1;
#X connect 3 0 13 1;
#X connect 3 0 43 0;
#X connect 4 0 11 1;
#X connect 5 0 13 0;
#X connect 5 0 12 0;
#X connect 5 0 42 0;
#X connect 6 0 27 0;
#X connect 7 0 26 0;
#X connect 8 0 25 0;
#X connect 9 0 24 0;
#X connect 10 0 14 0;
#X connect 10 0 0 0;
#X connect 10 0 22 0;
#X connect 11 0 0 1;
#X connect 11 0 14 1;
#X connect 11 0 23 0;
#X connect 12 0 8 1;
#X connect 12 0 6 1;
#X connect 13 0 9 1;
#X connect 13 0 7 1;
#X connect 14 0 8 0;
#X connect 14 0 6 0;
#X connect 15 0 37 0;
#X connect 16 0 22 1;
#X connect 16 0 23 1;
#X connect 16 0 42 1;
#X connect 16 0 43 1;
#X connect 17 0 4 1;
#X connect 17 0 2 1;
#X connect 17 0 5 1;
#X connect 17 0 3 1;
#X connect 18 0 36 0;
#X connect 18 0 57 1;
#X connect 18 0 59 0;
#X connect 19 0 60 0;
#X connect 19 0 61 1;
#X connect 19 0 63 0;
#X connect 20 0 67 0;
#X connect 20 0 64 0;
#X connect 20 0 65 1;
#X connect 21 0 71 0;
#X connect 21 0 69 1;
#X connect 21 0 68 0;
#X connect 22 0 32 0;
#X connect 23 0 33 0;
#X connect 28 0 72 0;
#X connect 29 0 16 0;
#X connect 30 0 17 0;
#X connect 31 0 49 0;
#X connect 34 0 30 0;
#X connect 35 0 34 0;
#X connect 36 0 57 0;
#X connect 37 0 28 0;
#X connect 38 0 35 0;
#X connect 39 0 46 0;
#X connect 40 0 48 0;
#X connect 41 0 37 0;
#X connect 41 0 38 0;
#X connect 41 0 39 0;
#X connect 41 0 40 0;
#X connect 42 0 44 0;
#X connect 43 0 45 0;
#X connect 46 0 47 0;
#X connect 46 1 50 0;
#X connect 47 0 50 0;
#X connect 48 0 53 0;
#X connect 49 0 10 0;
#X connect 49 1 11 0;
#X connect 50 0 36 1;
#X connect 50 0 60 1;
#X connect 50 0 64 1;
#X connect 50 0 68 1;
#X connect 51 0 50 0;
#X connect 52 0 40 0;
#X connect 53 0 54 0;
#X connect 54 0 55 0;
#X connect 55 0 56 0;
#X connect 56 0 58 1;
#X connect 56 0 62 1;
#X connect 56 0 66 1;
#X connect 56 0 70 1;
#X connect 57 0 58 0;
#X connect 58 0 59 1;
#X connect 59 0 2 0;
#X connect 60 0 61 0;
#X connect 61 0 62 0;
#X connect 62 0 63 1;
#X connect 63 0 4 0;
#X connect 64 0 65 0;
#X connect 65 0 66 0;
#X connect 66 0 67 1;
#X connect 67 0 5 0;
#X connect 68 0 69 0;
#X connect 69 0 70 0;
#X connect 70 0 71 1;
#X connect 71 0 3 0;
#X connect 72 0 29 0;
#X restore 277 381 pd rev2 90 90 4000 20;
#X msg 329 348 90;
#X obj 339 311 loadbang;
#X obj 291 67 r background;
#X obj 223 189 *~;
#X obj 291 121 vline~;
#X obj 290 151 *~;
#X obj 223 154 noise~;
#X msg 291 95 1 800 \, 0 600 1000;
#X obj 454 96 r kick;
#X obj 454 189 osc~;
#X obj 454 157 vline~;
#X obj 682 198 *~;
#X obj 736 141 vline~;
#X obj 735 171 *~;
#X obj 682 168 noise~;
#X msg 736 115 1 5 \, 0 100 50;
#X obj 682 230 *~ 0.3;
#X obj 736 85 r snare;
#X msg 454 129 2000 \, 60 5 \, 40 10 100 \, 0 200 200;
#X msg 407 350 30;
#X msg 364 348 3000;
#X obj 295 280 *~ 0.1;
#X obj 765 371 loadbang;
#X obj 765 436 metro 250;
#X obj 765 474 s tick;
#X msg 765 402 1;
#X obj 869 194 osc~;
#X obj 869 229 *~;
#X obj 907 163 vline~;
#X obj 866 108 t f b;
#X obj 906 193 *~;
#X obj 866 82 r bass;
#X msg 907 137 1 5 \, 0 500 500;
#X connect 0 0 1 0;
#X connect 1 0 3 0;
#X connect 1 0 4 0;
#X connect 3 0 2 0;
#X connect 3 0 2 1;
#X connect 4 0 10 0;
#X connect 5 0 7 0;
#X connect 6 0 8 1;
#X connect 6 0 8 0;
#X connect 7 0 0 0;
#X connect 7 1 9 0;
#X connect 8 0 1 1;
#X connect 9 0 6 0;
#X connect 10 0 2 0;
#X connect 10 1 2 1;
#X connect 10 2 2 0;
#X connect 10 3 2 1;
#X connect 11 0 10 1;
#X connect 11 0 10 2;
#X connect 12 0 11 0;
#X connect 12 0 31 0;
#X connect 12 0 30 0;
#X connect 13 0 18 0;
#X connect 14 0 10 0;
#X connect 15 0 16 1;
#X connect 15 0 16 0;
#X connect 16 0 14 1;
#X connect 17 0 14 0;
#X connect 18 0 15 0;
#X connect 19 0 29 0;
#X connect 20 0 3 0;
#X connect 20 0 32 0;
#X connect 21 0 20 0;
#X connect 22 0 3 0;
#X connect 22 0 27 0;
#X connect 23 0 24 1;
#X connect 23 0 24 0;
#X connect 24 0 22 1;
#X connect 25 0 22 0;
#X connect 26 0 23 0;
#X connect 27 0 10 0;
#X connect 28 0 26 0;
#X connect 29 0 21 0;
#X connect 30 0 10 4;
#X connect 31 0 10 3;
#X connect 32 0 10 0;
#X connect 33 0 36 0;
#X connect 34 0 35 0;
#X connect 36 0 34 0;
#X connect 37 0 38 0;
#X connect 38 0 3 0;
#X connect 39 0 41 1;
#X connect 39 0 41 0;
#X connect 40 0 37 0;
#X connect 40 1 43 0;
#X connect 41 0 38 1;
#X connect 42 0 40 0;
#X connect 43 0 39 0;
