#N canvas 814 316 450 300 10;
#X obj 70 49 r tick;
#X obj 70 238 s kick;
#X obj 157 239 s snare;
#X obj 171 156 random 100;
#X obj 70 83 i;
#X obj 100 82 + 1;
#X obj 130 82 % 8;
#X obj 70 111 sel 0 2 4 6 7;
#X obj 172 211 gate;
#X obj 171 180 > 70;
#X connect 0 0 4 0;
#X connect 3 0 9 0;
#X connect 4 0 5 0;
#X connect 4 0 7 0;
#X connect 5 0 6 0;
#X connect 6 0 4 1;
#X connect 7 0 1 0;
#X connect 7 1 2 0;
#X connect 7 2 1 0;
#X connect 7 3 2 0;
#X connect 7 4 3 0;
#X connect 7 4 8 1;
#X connect 8 0 2 0;
#X connect 9 0 8 0;
