#N canvas 887 260 276 314 10;
#X obj 60 220 s sequence;
#X obj 142 96 random 24;
#X obj 60 195 gate;
#X obj 61 95 random 100;
#X obj 61 119 > 50;
#X obj 143 150 mtof;
#X obj 143 124 + 72;
#X obj 60 39 r tick;
#X connect 1 0 6 0;
#X connect 2 0 0 0;
#X connect 3 0 4 0;
#X connect 4 0 2 0;
#X connect 5 0 2 1;
#X connect 6 0 5 0;
#X connect 7 0 1 0;
#X connect 7 0 3 0;
