#N canvas 35 22 415 460 10;
#X obj 76 358 s sequence;
#X obj 76 328 gate;
#X obj 75 95 random 100;
#X obj 74 39 r tick;
#X obj 156 96 random 6;
#X obj 156 121 sel 0 1 2 3 4 5;
#X msg 155 181 72;
#X msg 184 182 74;
#X obj 155 296 mtof;
#X msg 216 181 75;
#X msg 248 181 77;
#X msg 289 182 80;
#X obj 75 120 > 35;
#X msg 324 182 84;
#X connect 1 0 0 0;
#X connect 2 0 12 0;
#X connect 3 0 2 0;
#X connect 3 0 4 0;
#X connect 4 0 5 0;
#X connect 5 0 6 0;
#X connect 5 1 7 0;
#X connect 5 2 9 0;
#X connect 5 3 10 0;
#X connect 5 4 11 0;
#X connect 5 5 13 0;
#X connect 6 0 8 0;
#X connect 7 0 8 0;
#X connect 8 0 1 1;
#X connect 9 0 8 0;
#X connect 10 0 8 0;
#X connect 11 0 8 0;
#X connect 12 0 1 0;
#X connect 13 0 8 0;
