#N canvas 500 100 504 533 10;
#X obj 202 378 dac~;
#X obj 201 230 phasor~;
#X obj 201 257 *~ 2;
#X obj 201 281 -~ 1;
#X floatatom 104 32 5 0 0 0 - - -;
#X obj 106 167 mtof;
#X obj 106 124 * 100;
#X obj 106 147 + 10;
#X floatatom 106 233 5 0 0 0 - - -;
#X floatatom 301 28 5 0 0 0 - - -;
#X obj 303 163 mtof;
#X obj 303 120 * 100;
#X obj 303 143 + 10;
#X obj 201 319 lop~;
#X obj 134 92 r \$0freq;
#X obj 120 62 r freq;
#X obj 350 32 r filterFreq;
#X obj 353 70 r \$0filterFreq;
#X connect 1 0 2 0;
#X connect 2 0 3 0;
#X connect 3 0 13 0;
#X connect 4 0 6 0;
#X connect 5 0 1 0;
#X connect 5 0 8 0;
#X connect 6 0 7 0;
#X connect 7 0 5 0;
#X connect 9 0 11 0;
#X connect 10 0 13 1;
#X connect 11 0 12 0;
#X connect 12 0 10 0;
#X connect 13 0 0 0;
#X connect 13 0 0 1;
#X connect 14 0 6 0;
#X connect 15 0 6 0;
#X connect 16 0 11 0;
#X connect 17 0 11 0;
