#N canvas 405 194 437 468 10;
#X obj 90 122 dac~;
#X obj 157 81 *~ 1;
#X obj 158 37 *~ 0.2;
#X obj 14 83 *~ 1;
#X obj 15 39 *~ 0.2;
#X obj 35 63 r left;
#X obj 178 60 r right;
#X obj 87 152 loadbang;
#X obj 87 174 metro 1000;
#X obj 87 195 tgl 15 0 empty empty empty 17 7 0 10 -262144 -1 -1 0
1;
#X obj 87 239 realtime;
#X obj 87 216 sel 0;
#X obj 132 217 sel 1;
#X obj 87 262 print PD_RUNS2;
#X obj 15 20 osc~ 220;
#X obj 158 18 osc~ 330;
#X connect 1 0 0 1;
#X connect 2 0 1 0;
#X connect 3 0 0 0;
#X connect 4 0 3 0;
#X connect 5 0 3 1;
#X connect 6 0 1 1;
#X connect 7 0 8 0;
#X connect 8 0 9 0;
#X connect 9 0 11 0;
#X connect 9 0 12 0;
#X connect 10 0 13 0;
#X connect 11 0 10 0;
#X connect 12 0 10 1;
#X connect 14 0 4 0;
#X connect 15 0 2 0;
